<?xml version="1.0" encoding="UTF-8"?>
<svg version="1.1" xmlns="http://www.w3.org/2000/svg" width="239" height="239">
<path d="M0 0 C78.87 0 157.74 0 239 0 C239 78.87 239 157.74 239 239 C160.13 239 81.26 239 0 239 C0 160.13 0 81.26 0 0 Z " fill="#212E35" transform="translate(0,0)"/>
<path d="M0 0 C2.17541479 1.02908014 4.31627751 2.11056323 6.45495605 3.21394348 C7.23840897 3.60968567 8.02186188 4.00542786 8.82905579 4.41316223 C11.31894457 5.6725469 13.80310865 6.94275231 16.2869873 8.21394348 C18.78259435 9.48301843 21.27933208 10.74981715 23.77705383 12.01472473 C25.32774615 12.8008994 26.87702718 13.58986537 28.42472839 14.38191223 C31.29008735 15.84112681 34.04400985 17.195451 37.0994873 18.21394348 C37.0994873 20.19394348 37.0994873 22.17394348 37.0994873 24.21394348 C27.47552282 29.4457631 17.75341544 34.46530554 7.9119873 39.27644348 C6.93286377 39.765401 5.95374023 40.25435852 4.94494629 40.75813293 C4.01239014 41.20890198 3.07983398 41.65967102 2.11901855 42.12409973 C1.29506592 42.52765686 0.47111328 42.93121399 -0.37780762 43.34700012 C-5.14583268 44.98556172 -8.54338402 44.5436561 -13.05407715 42.485672 C-14.63023064 41.70048325 -16.1998663 40.90211577 -17.76379395 40.09284973 C-18.59638229 39.67349655 -19.42897064 39.25414337 -20.28678894 38.82208252 C-22.93469272 37.48469663 -25.57366682 36.13062632 -28.2130127 34.77644348 C-30.00739997 33.86848514 -31.8023166 32.96157215 -33.59777832 32.05574036 C-46.68830058 25.42615559 -46.68830058 25.42615559 -47.9005127 24.21394348 C-47.94132052 22.21435984 -47.94305626 20.21349094 -47.9005127 18.21394348 C-46.3380127 17.43269348 -44.7755127 16.65144348 -43.2130127 15.87019348 C-42.21125 15.36898987 -41.2094873 14.86778625 -40.17736816 14.35139465 C-37.98472249 13.25572526 -35.79102801 12.16215233 -33.59631348 11.07063293 C-28.6898389 8.62751954 -23.79307261 6.17742113 -18.9552002 3.60066223 C-18.23848145 3.22425598 -17.5217627 2.84784973 -16.7833252 2.46003723 C-15.48204407 1.77395321 -14.18721626 1.07542921 -12.9005127 0.36238098 C-8.14391231 -2.12162144 -4.95490794 -2.04936157 0 0 Z " fill="#E84D1D" transform="translate(128.9005126953125,32.78605651855469)"/>
<path d="M0 0 C5.28030394 2.11212158 10.36905287 4.49200732 15.5 6.9375 C16.90572266 7.60168945 16.90572266 7.60168945 18.33984375 8.27929688 C22.6890873 10.34904327 26.90937347 12.4462692 31 15 C38.61593138 18.69433452 38.61593138 18.69433452 46.75390625 18.12304688 C47.68074219 17.65962891 48.60757813 17.19621094 49.5625 16.71875 C50.60075928 16.20924805 51.63901855 15.69974609 52.70874023 15.17480469 C53.79485596 14.62211914 54.88097168 14.06943359 56 13.5 C57.66881226 12.67483887 57.66881226 12.67483887 59.37133789 11.83300781 C62.58922522 10.23801215 65.79614679 8.62296699 69 7 C71.21754172 5.88234858 73.43539512 4.76533928 75.65429688 3.65039062 C77.31436335 2.81217524 78.96800685 1.96127254 80.62109375 1.109375 C83 0 83 0 85 0 C85 5.94 85 11.88 85 18 C82.669375 19.155 80.33875 20.31 77.9375 21.5 C72.28742001 24.31309787 66.6851064 27.20061257 61.125 30.1875 C59.89196043 30.84641656 58.65888842 31.50527244 57.42578125 32.1640625 C55.27313605 33.3177036 53.12411824 34.47816572 50.98046875 35.6484375 C50.10003906 36.11507812 49.21960938 36.58171875 48.3125 37.0625 C47.56613281 37.46597656 46.81976563 37.86945313 46.05078125 38.28515625 C42.87851842 39.39091644 40.71536446 38.31047563 37.7043457 37.00366211 C36.86991943 36.59897705 36.03549316 36.19429199 35.17578125 35.77734375 C34.23677979 35.32464111 33.29777832 34.87193848 32.33032227 34.40551758 C31.33444092 33.92107178 30.33855957 33.43662598 29.3125 32.9375 C27.24500863 31.93965451 25.1772981 30.94226297 23.109375 29.9453125 C22.08263672 29.4493457 21.05589844 28.95337891 19.99804688 28.44238281 C13.35496006 25.24634398 6.6742063 22.13037995 0 19 C0 12.73 0 6.46 0 0 Z " fill="#E64C1C" transform="translate(81,115)"/>
<path d="M0 0 C8.58215433 4.00500536 17.14917351 8.02420662 25.625 12.25 C26.26244141 12.56646484 26.89988281 12.88292969 27.55664062 13.20898438 C32.52638332 15.70169443 32.52638332 15.70169443 34.83886719 17.15820312 C38.26304505 19.39908277 38.26304505 19.39908277 42.21142578 19.84057617 C46.00668972 18.69654765 49.42602224 17.01731254 52.96875 15.25390625 C53.72667847 14.88273178 54.48460693 14.51155731 55.26550293 14.12913513 C57.67972852 12.94571406 60.08999982 11.75449909 62.5 10.5625 C64.91065977 9.37547283 67.32212251 8.19011482 69.73449707 7.00657654 C71.23263764 6.27101261 72.7296824 5.53321135 74.22546387 4.79286194 C74.90967407 4.45588791 75.59388428 4.11891388 76.29882812 3.77172852 C76.89441528 3.47718277 77.49000244 3.18263702 78.1036377 2.87916565 C80.36365752 1.83140606 82.68708838 0.92516465 85 0 C85 6.27 85 12.54 85 19 C83.04578125 19.94101563 81.0915625 20.88203125 79.078125 21.8515625 C77.14166284 22.78478317 75.20534652 23.71830576 73.26904297 24.65185547 C71.94465006 25.29019043 70.62011074 25.92822174 69.29541016 26.56591797 C68.00865218 27.18539584 66.7221524 27.8054103 65.43591309 28.42596436 C64.15497193 29.04339086 62.87314864 29.65899055 61.5904541 30.27276611 C58.54832957 31.73514978 55.55576902 33.23835237 52.58007812 34.83496094 C51.01676758 35.67075684 51.01676758 35.67075684 49.421875 36.5234375 C48.0620752 37.27633057 48.0620752 37.27633057 46.67480469 38.04443359 C42.68929628 39.46824519 39.71124585 38.71605183 35.8762207 37.11132812 C35.23257568 36.75490234 34.58893066 36.39847656 33.92578125 36.03125 C33.18432861 35.62890137 32.44287598 35.22655273 31.67895508 34.81201172 C30.8980249 34.37904785 30.11709473 33.94608398 29.3125 33.5 C19.69795235 28.29468978 9.90985295 23.6196307 0 19 C0 12.73 0 6.46 0 0 Z " fill="#E64C1C" transform="translate(81,64)"/>
<path d="M0 0 C9.17679274 3.6707171 18.07096432 7.95667888 27 12.1875 C27.93263672 12.62771484 28.86527344 13.06792969 29.82617188 13.52148438 C30.70853516 13.94107422 31.59089844 14.36066406 32.5 14.79296875 C33.2940625 15.1696167 34.088125 15.54626465 34.90625 15.93432617 C37 17 37 17 40 19 C44.91270185 18.71348396 48.78760925 16.8261273 53.0625 14.5625 C54.46126519 13.84315422 55.86106351 13.1258149 57.26171875 12.41015625 C58.01372559 12.0248877 58.76573242 11.63961914 59.54052734 11.24267578 C64.12000897 8.928842 68.74651202 6.71372812 73.375 4.5 C74.29676025 4.05470947 75.21852051 3.60941895 76.16821289 3.15063477 C77.02793701 2.73998779 77.88766113 2.32934082 78.7734375 1.90625 C79.54091309 1.53822266 80.30838867 1.17019531 81.09912109 0.79101562 C83 0 83 0 85 0 C85 5.94 85 11.88 85 18 C83.68128906 18.61746094 82.36257812 19.23492187 81.00390625 19.87109375 C79.18964674 20.72559198 77.37588052 21.581138 75.5625 22.4375 C74.61487793 22.88472412 73.66725586 23.33194824 72.69091797 23.79272461 C65.86390032 27.04262299 59.16639421 30.4751457 52.59594727 34.21850586 C48.40917013 36.53014864 44.88860774 37.92266609 40 38 C37.45082526 37.06083036 35.39936365 36.12528929 33.0625 34.8125 C31.67908355 34.07811046 30.2949154 33.34513586 28.91015625 32.61328125 C28.14590332 32.20287598 27.38165039 31.7924707 26.59423828 31.36962891 C21.44486106 28.6510136 16.21415118 26.0914828 11 23.5 C8.89555121 22.44848111 6.79136199 21.39644247 4.6875 20.34375 C3.140625 19.5703125 1.59375 18.796875 0 18 C0 12.06 0 6.12 0 0 Z " fill="#E64C1C" transform="translate(81,90)"/>
<path d="M0 0 C4.02035151 1.26291637 7.72541439 2.7434286 11.484375 4.64453125 C12.50273438 5.15693359 13.52109375 5.66933594 14.5703125 6.19726562 C15.61960937 6.73029297 16.66890625 7.26332031 17.75 7.8125 C19.30074219 8.59463867 19.30074219 8.59463867 20.8828125 9.39257812 C21.90632813 9.90884766 22.92984375 10.42511719 23.984375 10.95703125 C24.99564453 11.46314941 26.00691406 11.96926758 27.04882812 12.49072266 C28.96661356 13.47150935 30.86797698 14.48534534 32.74804688 15.53662109 C36.61637361 17.6545373 39.16933674 18.98481583 43.6328125 19.06640625 C47.69619695 17.77951071 51.17924359 16.03675916 54.875 13.9375 C56.36150942 13.12176287 57.84985096 12.30935703 59.33984375 11.5 C60.10151855 11.08621094 60.86319336 10.67242187 61.64794922 10.24609375 C65.52270931 8.19328334 69.47050931 6.30434419 73.4375 4.4375 C74.16501465 4.09130615 74.8925293 3.7451123 75.64208984 3.38842773 C80.74872056 1 80.74872056 1 83 1 C82.71125 1.556875 82.4225 2.11375 82.125 2.6875 C80.93555384 4.97106891 80.93555384 4.97106891 80.27758789 7.44506836 C78.57842828 10.84306288 76.82998184 11.55227866 73.43359375 13.19140625 C72.30759766 13.74376953 71.18160156 14.29613281 70.02148438 14.86523438 C68.83876953 15.42533203 67.65605469 15.98542969 66.4375 16.5625 C65.28185547 17.12646484 64.12621094 17.69042969 62.93554688 18.27148438 C59.63535809 19.87379069 56.32244204 21.44444014 53 23 C52.09596436 23.42651855 51.19192871 23.85303711 50.26049805 24.29248047 C49.46554932 24.65873535 48.67060059 25.02499023 47.8515625 25.40234375 C47.17303223 25.71550537 46.49450195 26.02866699 45.79541016 26.35131836 C42.82912918 27.4230356 40.947044 27.00324902 38 26 C36.13100411 25.07183048 34.26302222 24.14154342 32.40112305 23.19921875 C29.76050539 21.88038663 27.100455 20.60865727 24.43359375 19.34375 C23.45326172 18.87839844 22.47292969 18.41304687 21.46289062 17.93359375 C19.442773 16.97635273 17.42193628 16.0206278 15.40039062 15.06640625 C10.1365861 12.56445308 5.01002818 9.9793155 0 7 C0 4.69 0 2.38 0 0 Z " fill="#2B2D31" transform="translate(81,108)"/>
<path d="M0 0 C0.86625 -0.00515625 1.7325 -0.0103125 2.625 -0.015625 C5 0.25 5 0.25 8 2.25 C8 1.59 8 0.93 8 0.25 C9.65 0.25 11.3 0.25 13 0.25 C13 8.5 13 16.75 13 25.25 C11.35 25.25 9.7 25.25 8 25.25 C7.67 24.59 7.34 23.93 7 23.25 C6.01 23.91 5.02 24.57 4 25.25 C0.93405985 25.79543879 -1.93218522 25.78376742 -5 25.25 C-8.23569211 22.77159753 -10.76679461 20.17383532 -12 16.25 C-12.47235231 11.36902613 -12.52269768 9.22329912 -10.1875 4.875 C-6.96215363 1.00458435 -4.91543155 -0.02925852 0 0 Z " fill="#AABBC1" transform="translate(67,178.75)"/>
<path d="M0 0 C0.99 0.495 0.99 0.495 2 1 C1.67 1.598125 1.34 2.19625 1 2.8125 C-0.20787988 5.05386471 -0.20787988 5.05386471 0 8 C-1.17433594 8.54527344 -2.34867187 9.09054688 -3.55859375 9.65234375 C-5.18531835 10.41315975 -6.81158613 11.17495295 -8.4375 11.9375 C-9.28973145 12.33630371 -10.14196289 12.73510742 -11.02001953 13.14599609 C-15.36829675 15.20232027 -19.65609512 17.31808091 -23.87109375 19.63671875 C-24.63043213 20.05381104 -25.38977051 20.47090332 -26.17211914 20.90063477 C-27.61456523 21.70234895 -29.05032522 22.51624181 -30.47827148 23.34350586 C-33.22324186 24.86894008 -35.34083959 26.00918335 -38.5234375 25.96484375 C-41.87701388 24.65832424 -45.06392469 23.10131754 -48.25 21.4375 C-54.87700529 18.04299115 -61.56318323 14.81550885 -68.32714844 11.70288086 C-72.02368588 9.98764833 -75.54604652 8.17967938 -79 6 C-78.34 5.67 -77.68 5.34 -77 5 C-77 4.34 -77 3.68 -77 3 C-75.44873047 1.79345703 -75.44873047 1.79345703 -73 1 C-70.41738658 1.97283157 -68.22365123 2.99365221 -65.8203125 4.3046875 C-64.78473709 4.84163742 -64.78473709 4.84163742 -63.72824097 5.38943481 C-61.51895382 6.53635296 -59.3213489 7.70351778 -57.125 8.875 C-54.9352165 10.03803654 -52.74339629 11.19594911 -50.54318237 12.33914185 C-49.17455909 13.05059979 -47.81180314 13.77349484 -46.45608521 14.50924683 C-42.447753 16.59735824 -39.50800492 17.56811947 -35 17 C-32.35532871 16.12916338 -32.35532871 16.12916338 -29.8046875 14.8046875 C-28.84651123 14.33836914 -27.88833496 13.87205078 -26.90112305 13.39160156 C-25.40319214 12.64088379 -25.40319214 12.64088379 -23.875 11.875 C-22.85124268 11.37452148 -21.82748535 10.87404297 -20.77270508 10.35839844 C-16.45994034 8.24398236 -12.16594596 6.09516506 -7.89453125 3.8984375 C-6.83621094 3.35445312 -5.77789062 2.81046875 -4.6875 2.25 C-3.80449219 1.78078125 -2.92148438 1.3115625 -2.01171875 0.828125 C-1.01591797 0.41820312 -1.01591797 0.41820312 0 0 Z " fill="#2B2D31" transform="translate(161,59)"/>
<path d="M0 0 C4.84545896 1.49439389 9.31252346 3.44649648 13.875 5.625 C14.60879883 5.97038818 15.34259766 6.31577637 16.09863281 6.67163086 C19.93621602 8.48992996 23.73291375 10.36445023 27.4921875 12.33984375 C28.20777832 12.71222168 28.92336914 13.08459961 29.66064453 13.46826172 C31.02494524 14.18277396 32.38309227 14.90919709 33.73388672 15.64892578 C36.39608351 17.03997732 38.45265924 18.01288871 41.48828125 17.94140625 C44.92976626 16.6515184 48.18020528 15.06472656 51.4375 13.375 C52.13182129 13.02179688 52.82614258 12.66859375 53.54150391 12.3046875 C55.69693081 11.20812691 57.84856997 10.10437788 60 9 C62.62187187 7.66041141 65.24748772 6.3284824 67.875 5 C69.00679688 4.4225 70.13859375 3.845 71.3046875 3.25 C74 2 74 2 76 2 C76 3.65 76 5.3 76 7 C78.475 6.505 78.475 6.505 81 6 C77.85787707 8.53986695 74.62886137 10.26393713 70.984375 11.99609375 C69.81519531 12.55490234 68.64601563 13.11371094 67.44140625 13.68945312 C66.2110204 14.27231045 64.98055107 14.85499158 63.75 15.4375 C61.34831564 16.58068638 58.94766957 17.7260386 56.546875 18.87109375 C55.41056641 19.40718262 54.27425781 19.94327148 53.10351562 20.49560547 C50.52054236 21.7476729 48.02531123 23.08349358 45.515625 24.47265625 C41.52466195 26.20650797 40.08508382 26.34377757 36 25 C33.43313706 23.85607195 30.98100839 22.67869912 28.5 21.375 C27.08601499 20.64958852 25.67195089 19.92433118 24.2578125 19.19921875 C23.54915039 18.83231934 22.84048828 18.46541992 22.11035156 18.08740234 C18.88059562 16.42320372 15.62783858 14.80597261 12.375 13.1875 C8.25 11.125 4.125 9.0625 0 7 C0.66 6.67 1.32 6.34 2 6 C1.34 4.02 0.68 2.04 0 0 Z " fill="#2D2E31" transform="translate(83,84)"/>
<path d="M0 0 C3.25948481 1.61049348 5.22926325 3.94899534 7.375 6.875 C8.75785693 11.57671357 8.57576982 14.93071319 6.25 19.25 C3.68134686 22.38946495 1.71497046 24.62942849 -2.33203125 25.50390625 C-8.27292896 25.64424242 -11.3957099 24.7287941 -15.72265625 20.60546875 C-18.24243819 17.43840338 -18.33254402 14.00148383 -18.2890625 10.06640625 C-17.81603804 6.6849206 -16.1444493 4.57333916 -14 2 C-9.5357313 -0.97617913 -5.23275258 -0.74006072 0 0 Z " fill="#AABBC1" transform="translate(192,179)"/>
<path d="M0 0 C1.2375 1.11375 1.2375 1.11375 2.5 2.25 C2.5 3.57 2.5 4.89 2.5 6.25 C-1.5 6.25 -1.5 6.25 -4.5 4.25 C-8.08357241 3.99984127 -8.08357241 3.99984127 -11.5 4.25 C-12.79633621 5.31645115 -12.79633621 5.31645115 -12.5625 7.8125 C-12.541875 8.616875 -12.52125 9.42125 -12.5 10.25 C-10.705625 10.8996875 -10.705625 10.8996875 -8.875 11.5625 C0.23792614 14.98792614 0.23792614 14.98792614 3.5 18.25 C4.12975836 21.33218276 4.07508919 24.16155803 3.5 27.25 C0.72499526 31.02708979 -0.77923737 31.965557 -5.359375 32.72265625 C-10.34391043 32.96444342 -14.29440632 33.04632806 -18.25 29.75 C-18.9925 28.925 -19.735 28.1 -20.5 27.25 C-19.84 25.6 -19.18 23.95 -18.5 22.25 C-17.84 22.25 -17.18 22.25 -16.5 22.25 C-15.38625 23.4875 -15.38625 23.4875 -14.25 24.75 C-11.72429312 27.517886 -11.72429312 27.517886 -8.375 27.6875 C-5.30919458 27.42844932 -5.30919458 27.42844932 -2.5 25.25 C-2.995 22.775 -2.995 22.775 -3.5 20.25 C-4.16386719 20.09144531 -4.82773437 19.93289062 -5.51171875 19.76953125 C-11.05013609 18.30609543 -15.06191449 17.1298633 -18.5 12.25 C-19.5625 8.75 -19.5625 8.75 -19.5 5.25 C-14.95051102 -2.33248163 -7.75955327 -3.87977664 0 0 Z " fill="#A9BAC0" transform="translate(30.5,171.75)"/>
<path d="M0 0 C1.65 0 3.3 0 5 0 C6.65 4.95 8.3 9.9 10 15 C11.98 11.37 13.96 7.74 16 4 C20 5 20 5 21.265625 6.77734375 C21.75289062 7.84662109 21.75289062 7.84662109 22.25 8.9375 C22.58515625 9.64777344 22.9203125 10.35804688 23.265625 11.08984375 C24 13 24 13 24 15 C24.66 15 25.32 15 26 15 C26.12117188 14.41992188 26.24234375 13.83984375 26.3671875 13.2421875 C27.33735474 8.71971558 28.43397783 4.36249034 30 0 C31.65 0 33.3 0 35 0 C33.88463003 5.77964437 32.38040554 11.38631065 30.625 17 C30.42817627 17.6710376 30.23135254 18.3420752 30.02856445 19.03344727 C29.4140625 20.9375 29.4140625 20.9375 28 24 C26.68 24.33 25.36 24.66 24 25 C22.02 21.04 20.04 17.08 18 13 C15.67093218 16.10542376 14.52292087 17.79165466 13.3125 21.25 C12.879375 22.4875 12.44625 23.725 12 25 C10.68 25 9.36 25 8 25 C6.66165014 21.21008507 5.33017337 17.41779164 4 13.625 C3.6184375 12.54476562 3.236875 11.46453125 2.84375 10.3515625 C2.4828125 9.3203125 2.121875 8.2890625 1.75 7.2265625 C1.41484375 6.27346191 1.0796875 5.32036133 0.734375 4.33837891 C0 2 0 2 0 0 Z " fill="#AABAC0" transform="translate(202,179)"/>
<path d="M0 0 C1.65 0 3.3 0 5 0 C5.33 6.27 5.66 12.54 6 19 C8.0109375 16.7725 8.0109375 16.7725 10.0625 14.5 C14.32935531 10.18588521 14.32935531 10.18588521 17.15625 9.40234375 C19.0625 9.4375 19.0625 9.4375 22 10 C15.84965831 17.48291572 15.84965831 17.48291572 12 20 C13.92174691 24.43013235 17.06032698 27.48454954 20.3203125 30.9765625 C22 33 22 33 22 35 C19.265625 35.28125 19.265625 35.28125 16 35 C13.734375 33.03125 13.734375 33.03125 11.75 30.5 C10.53369658 28.97254919 9.2907034 27.46512277 8 26 C7.34 26 6.68 26 6 26 C5.67 28.97 5.34 31.94 5 35 C3.35 35 1.7 35 0 35 C0 23.45 0 11.9 0 0 Z " fill="#A9B9BF" transform="translate(111,169)"/>
<path d="M0 0 C7.26 0 14.52 0 22 0 C22 1.32 22 2.64 22 4 C16.39 4 10.78 4 5 4 C5 7.3 5 10.6 5 14 C9.95 14 14.9 14 20 14 C20 15.65 20 17.3 20 19 C15.05 19 10.1 19 5 19 C5 23.62 5 28.24 5 33 C3.35 33 1.7 33 0 33 C0 22.11 0 11.22 0 0 Z " fill="#ADBEC4" transform="translate(138,171)"/>
<path d="M0 0 C2.29327525 1.44785148 3.34437719 2.79250293 5 5 C4.01 5.99 3.02 6.98 2 8 C1.46375 7.505 0.9275 7.01 0.375 6.5 C-2.72140596 4.54437518 -4.39853135 4.39975523 -8 5 C-10.610911 6.95086064 -10.610911 6.95086064 -12 10 C-11.93931504 13.51972785 -11.66225706 15.91947533 -9.8125 18.9375 C-7.06570443 20.54769051 -5.13003514 20.37560422 -2 20 C0.81780534 18.61114752 0.81780534 18.61114752 3 17 C3.66 18.32 4.32 19.64 5 21 C1.89774819 24.30906859 -0.5079554 25.35538705 -4.9375 25.5625 C-8.53291596 25.4229764 -10.73517722 24.94116309 -13.5625 22.6875 C-17.31442502 18.55076216 -17.39076228 14.88284979 -17.359375 9.515625 C-16.77622918 5.43360426 -14.98140974 3.7684519 -12 1 C-8.29012673 -0.85493664 -4.03860349 -0.59596347 0 0 Z " fill="#ACBDC3" transform="translate(102,179)"/>
<path d="M0 0 C3.68095769 0.70486424 4.80750351 1.4858384 6.9375 4.5625 C8.13129979 8.66618679 8.43296009 10.61286816 6.4375 14.4375 C3.19295794 17.19536075 1.17458603 17.63816225 -3.0625 17.5625 C-5.47531883 15.72113826 -6.71400913 14.25948174 -8.0625 11.5625 C-8.60285146 7.50986402 -8.40449395 6.02519769 -5.9375 2.6875 C-3.0625 0.5625 -3.0625 0.5625 0 0 Z " fill="#26343C" transform="translate(187.0625,182.4375)"/>
<path d="M0 0 C1.65 0 3.3 0 5 0 C5 2.31 5 4.62 5 7 C6.98 7 8.96 7 11 7 C11 8.65 11 10.3 11 12 C9.02 12 7.04 12 5 12 C5 18.6 5 25.2 5 32 C3.35 32 1.7 32 0 32 C0 25.07 0 18.14 0 11 C-1.65 11 -3.3 11 -5 11 C-5 9.68 -5 8.36 -5 7 C-3.35 7 -1.7 7 0 7 C0 4.69 0 2.38 0 0 Z " fill="#A8B9BF" transform="translate(43,172)"/>
<path d="M0 0 C3.41197561 0.9305388 4.37417703 1.24354716 6.4375 3.9375 C7.11524807 7.00431004 7.03224029 9.85819047 6.4375 12.9375 C4.04882818 15.73565842 2.47735162 16.67753709 -1.0625 17.5625 C-4.18311719 16.7823457 -5.76063628 15.27819671 -7.67578125 12.72265625 C-9.2627951 9.52765479 -8.59841952 7.2280679 -7.5625 3.9375 C-5.22589968 0.34273028 -4.33166028 -0.07599404 0 0 Z " fill="#25323A" transform="translate(68.5625,183.0625)"/>
<path d="M0 0 C1.65 0 3.3 0 5 0 C5 11.55 5 23.1 5 35 C3.35 35 1.7 35 0 35 C0 23.45 0 11.9 0 0 Z " fill="#A7B8BE" transform="translate(165,169)"/>
<path d="M0 0 C4.55384615 -0.36923077 4.55384615 -0.36923077 6.8125 1.5 C7.204375 1.995 7.59625 2.49 8 3 C4.77208445 5.1519437 3.71599191 5.20086443 0 5 C0 3.35 0 1.7 0 0 Z " fill="#242D32" transform="translate(149,91)"/>
<path d="M0 0 C0.33 1.65 0.66 3.3 1 5 C-2.82097239 4.46930939 -5.06171403 3.50298434 -8 1 C-4.93251126 -0.86240388 -3.40254489 -1.2151946 0 0 Z " fill="#3A2F2F" transform="translate(124,80)"/>
<path d="M0 0 C0 0.66 0 1.32 0 2 C-0.66 2 -1.32 2 -2 2 C-1.67 3.98 -1.34 5.96 -1 8 C-1.99 8.33 -2.98 8.66 -4 9 C-5 6 -5 6 -4 3 C-4.66 2.67 -5.32 2.34 -6 2 C-2.25 0 -2.25 0 0 0 Z " fill="#392E2F" transform="translate(148,66)"/>
<path d="M0 0 C0 5.94 0 11.88 0 18 C-0.33 18 -0.66 18 -1 18 C-1.04898438 16.94039062 -1.09796875 15.88078125 -1.1484375 14.7890625 C-1.22346709 13.40101503 -1.29901485 12.01299549 -1.375 10.625 C-1.4059375 9.92632812 -1.436875 9.22765625 -1.46875 8.5078125 C-1.59499498 4.29814173 -1.59499498 4.29814173 -4 1 C-2 0 -2 0 0 0 Z " fill="#D15125" transform="translate(166,115)"/>
<path d="M0 0 C2 1 2 1 3 3 C0.69 3.66 -1.62 4.32 -4 5 C-4.66 4.34 -5.32 3.68 -6 3 C-4.03533587 1.93224776 -2.03144641 0.93446535 0 0 Z " fill="#402F2B" transform="translate(137,121)"/>
</svg>
